<svg width="0" height="0" class="hidden">
   <symbol fill="none" xmlns="http://www.w3.org/2000/svg" viewBox="0 0 818 803" id="square">
    <path d="M256.707 25.0083C270.514 1.09371 301.094 -7.10004 325.008 6.70708L792.563 276.65C816.477 290.457 824.671 321.036 810.864 344.951L560.864 777.964C547.057 801.878 516.477 810.072 492.563 796.265L25.0084 526.322C1.09374 512.515 -7.10005 481.936 6.70707 458.021L256.707 25.0083Z" fill="#AFA1F9" fill-opacity="0.3"></path>
  </symbol>
  <symbol fill="none" xmlns="http://www.w3.org/2000/svg" viewBox="0 0 168 168" id="square-mini">
    <path d="M6.14214 69.8579C-1.66835 77.6683 -1.66835 90.3316 6.14213 98.1421L69.8579 161.858C77.6683 169.668 90.3316 169.668 98.1421 161.858L161.858 98.1421C169.668 90.3317 169.668 77.6684 161.858 69.8579L98.1421 6.14214C90.3317 -1.66834 77.6684 -1.66835 69.8579 6.14213L6.14214 69.8579Z" fill="#AFA1F9"></path>
  </symbol>
  <symbol xmlns="http://www.w3.org/2000/svg" viewBox="0 0 30 30" id="tg">
    <path fill-rule="evenodd" clip-rule="evenodd" d="M15 0C6.7175 0 0 6.715 0 15C0 23.2838 6.7175 30 15 30C23.2838 30 30 23.2838 30 15C30 6.715 23.2838 0 15 0ZM19.03 22.3388C19.265 22.505 19.5675 22.5462 19.8375 22.445C20.1063 22.3425 20.305 22.1112 20.365 21.8312C20.9988 18.8538 22.5362 11.3162 23.1125 8.60875C23.1562 8.40375 23.0838 8.19125 22.9238 8.055C22.7625 7.91875 22.54 7.88 22.3425 7.9525C19.285 9.085 9.86875 12.6175 6.02 14.0413C5.77625 14.1325 5.6175 14.3663 5.625 14.625C5.63375 14.8825 5.8075 15.1063 6.0575 15.1813C7.78375 15.6975 10.0487 16.4163 10.0487 16.4163C10.0487 16.4163 11.1075 19.6137 11.6587 21.2387C11.7287 21.4437 11.8888 21.6038 12.0988 21.6587C12.31 21.7137 12.5337 21.6562 12.6912 21.5075C13.5775 20.6712 14.9475 19.3775 14.9475 19.3775C14.9475 19.3775 17.5525 21.2863 19.03 22.3388ZM11.0012 16.0112L12.2262 20.05L12.4987 17.4925C12.4987 17.4925 17.2275 13.2262 19.925 10.795C20.0037 10.7237 20.0138 10.6038 19.9487 10.52C19.8837 10.4363 19.7638 10.4162 19.675 10.4737C16.55 12.4688 11.0012 16.0112 11.0012 16.0112Z"></path>
  </symbol>
  <symbol fill="none" xmlns="http://www.w3.org/2000/svg" viewBox="0 0 644 719" id="triangle">
    <path d="M603.75 290.131C657.083 320.923 657.083 397.903 603.75 428.695L120 707.988C66.6666 738.78 -2.69192e-06 700.29 0 638.706L2.44166e-05 80.1193C2.71085e-05 18.5353 66.6667 -19.9547 120 10.8373L603.75 290.131Z" fill="#AFA1F9" fill-opacity="0.1"></path>
  </symbol>
  <symbol fill="none" xmlns="http://www.w3.org/2000/svg" viewBox="0 0 207 230" id="triangle-mini">
    <path d="M15 88.9345C-5 100.481 -5 129.349 15 140.896L162 225.767C182 237.314 207 222.88 207 199.786L207 30.0447C207 6.95073 182 -7.48301 162 4.064L15 88.9345Z" fill="#AFA1F9"></path>
  </symbol>
  <symbol xmlns="http://www.w3.org/2000/svg" viewBox="0 0 30 30" id="vk">
    <path fill-rule="evenodd" clip-rule="evenodd" d="M19.6048 0H10.3952C1.99012 0 0 1.99012 0 10.3952V19.6048C0 28.0099 1.99012 30 10.3952 30H19.6048C28.0099 30 30 28.0099 30 19.6048V10.3952C30 1.99012 27.9887 0 19.6048 0ZM24.2202 21.4044H22.0395C21.2138 21.4044 20.9598 20.7481 19.4778 19.2449C18.1863 17.9958 17.6147 17.8264 17.2971 17.8264C16.8525 17.8264 16.7255 17.9534 16.7255 18.5674V20.5363C16.7255 21.0656 16.5561 21.3832 15.1588 21.3832C12.8511 21.3832 10.2893 19.9859 8.48977 17.3818C5.77982 13.5709 5.03881 10.7128 5.03881 10.12C5.03881 9.8024 5.16584 9.506 5.77982 9.506H7.96048C8.51094 9.506 8.72265 9.76006 8.93437 10.3529C10.0141 13.4651 11.8137 16.1962 12.5547 16.1962C12.8299 16.1962 12.957 16.0692 12.957 15.3705V12.1524C12.8723 10.6704 12.0889 10.5434 12.0889 10.0141C12.0889 9.76005 12.3006 9.506 12.6394 9.506H16.0692C16.5349 9.506 16.7043 9.76006 16.7043 10.3105V14.6507C16.7043 15.1164 16.916 15.2858 17.043 15.2858C17.3183 15.2858 17.5512 15.1164 18.0593 14.6083C19.626 12.8511 20.7481 10.1411 20.7481 10.1411C20.8963 9.82357 21.1503 9.52717 21.7008 9.52717H23.8814C24.5378 9.52717 24.686 9.86591 24.5378 10.3317C24.2625 11.602 21.5949 15.3705 21.5949 15.3705C21.362 15.7516 21.2773 15.921 21.5949 16.3444C21.8278 16.662 22.59 17.3183 23.0981 17.9111C24.0296 18.9697 24.7495 19.8589 24.94 20.4728C25.1517 21.0868 24.8342 21.4044 24.2202 21.4044Z"></path>
  </symbol>
  <symbol xmlns="http://www.w3.org/2000/svg" viewBox="0 0 30 30" id="wha">
    <g clip-path="url(#clip0_1_145)">
      <path fill-rule="evenodd" clip-rule="evenodd" d="M25.2284 4.35944C22.4527 1.54961 18.7611 0.00142558 14.8277 0C6.72254 0 0.126202 6.66817 0.123382 14.8646C0.121972 17.4848 0.799514 20.0423 2.08621 22.2961L0 30L7.79491 27.9329C9.94246 29.1176 12.3607 29.7413 14.8213 29.742H14.8277C14.8284 29.742 14.827 29.742 14.8277 29.742C22.9314 29.742 29.5284 23.0731 29.5312 14.8767C29.5327 10.9043 28.0048 7.16926 25.2284 4.35944ZM14.8277 27.2315H14.8227C12.6301 27.2308 10.479 26.6349 8.60218 25.5094L8.15589 25.2414L3.53013 26.4681L4.76465 21.9084L4.47418 21.4408C3.25093 19.4735 2.60441 17.1997 2.60582 14.8653C2.60864 8.05313 8.09102 2.51045 14.8326 2.51045C18.0969 2.51188 21.1653 3.79847 23.4729 6.13429C25.7804 8.4694 27.0502 11.5743 27.0488 14.8753C27.046 21.6881 21.5636 27.2315 14.8277 27.2315ZM21.5312 17.9773C21.1639 17.7913 19.3575 16.8932 19.0205 16.7691C18.6835 16.6451 18.4389 16.5831 18.1942 16.9552C17.9496 17.3273 17.2452 18.1641 17.0309 18.4114C16.8166 18.6595 16.6023 18.6901 16.2349 18.5041C15.8676 18.318 14.6838 17.926 13.2801 16.6608C12.188 15.6757 11.4505 14.4597 11.2362 14.0876C11.0219 13.7155 11.2136 13.5145 11.3969 13.3299C11.5619 13.1631 11.7643 12.8958 11.9483 12.6791C12.1323 12.4625 12.1929 12.3071 12.3156 12.0597C12.4383 11.8117 12.377 11.595 12.2853 11.409C12.1936 11.2229 11.459 9.3946 11.1523 8.65116C10.8541 7.92696 10.5509 8.02533 10.326 8.01321C10.1117 8.00252 9.86702 8.00038 9.62166 8.00038C9.37701 8.00038 8.97867 8.09304 8.64166 8.46512C8.30465 8.8372 7.35567 9.73603 7.35567 11.5636C7.35567 13.3919 8.67198 15.1582 8.85599 15.4063C9.04001 15.6543 11.447 19.4058 15.1322 21.0153C16.0086 21.398 16.6932 21.6268 17.2269 21.7979C18.1068 22.0809 18.9077 22.041 19.5409 21.9454C20.2466 21.8385 21.7145 21.0466 22.0205 20.1791C22.3265 19.3117 22.3265 18.5675 22.2348 18.4128C22.1432 18.2567 21.8985 18.1634 21.5312 17.9773Z"></path>
    </g>
    <defs>
      <clipPath id="clip0_1_145">
        <rect width="29.5312" height="30" fill="white"></rect>
      </clipPath>
    </defs>
  </symbol>
  <symbol fill="none" xmlns="http://www.w3.org/2000/svg" viewBox="0 0 152 152" id="ellipse_min">
    <circle cx="76" cy="76" r="76" fill="#9BD9F9" fill-opacity="0.5"></circle>
  </symbol>
  <symbol xmlns="http://www.w3.org/2000/svg" viewBox="0 0 30 30" id="fb">
    <path d="M15 0C6.71572 0 0 6.75676 0 15.0917C0 22.6242 5.48525 28.8678 12.6562 30V19.4541H8.84766V15.0917H12.6562V11.7668C12.6562 7.98444 14.8957 5.89518 18.322 5.89518C19.9632 5.89518 21.6797 6.18994 21.6797 6.18994V9.90391H19.7883C17.925 9.90391 17.3438 11.0673 17.3438 12.2608V15.0917H21.5039L20.8389 19.4541H17.3438V30C24.5147 28.8678 30 22.6245 30 15.0917C30 6.75676 23.2843 0 15 0Z" ></path>
  </symbol>
   <symbol xmlns="http://www.w3.org/2000/svg" viewBox="0 0 86 70" id="points">
    <circle cx="3" cy="3" r="3"></circle>
    <circle cx="3" cy="19" r="3"></circle>
    <circle cx="3" cy="35" r="3"></circle>
    <circle cx="3" cy="51" r="3"></circle>
    <circle cx="3" cy="67" r="3"></circle>
    <circle cx="19" cy="3" r="3"></circle>
    <circle cx="19" cy="19" r="3"></circle>
    <circle cx="19" cy="35" r="3"></circle>
    <circle cx="19" cy="51" r="3"></circle>
    <circle cx="19" cy="67" r="3"></circle>
    <circle cx="35" cy="3" r="3"></circle>
    <circle cx="35" cy="19" r="3"></circle>
    <circle cx="35" cy="35" r="3"></circle>
    <circle cx="35" cy="51" r="3"></circle>
    <circle cx="35" cy="67" r="3"></circle>
    <circle cx="51" cy="3" r="3"></circle>
    <circle cx="51" cy="19" r="3"></circle>
    <circle cx="51" cy="35" r="3"></circle>
    <circle cx="51" cy="51" r="3"></circle>
    <circle cx="51" cy="67" r="3"></circle>
    <circle cx="67" cy="3" r="3"></circle>
    <circle cx="67" cy="19" r="3"></circle>
    <circle cx="67" cy="35" r="3"></circle>
    <circle cx="67" cy="51" r="3"></circle>
    <circle cx="67" cy="67" r="3"></circle>
    <circle cx="83" cy="3" r="3"></circle>
    <circle cx="83" cy="19" r="3"></circle>
    <circle cx="83" cy="35" r="3"></circle>
    <circle cx="83" cy="51" r="3"></circle>
    <circle cx="83" cy="67" r="3"></circle>
  </symbol>

   <symbol fill="none" xmlns="http://www.w3.org/2000/svg" viewBox="0 0 988 902" id="rectangle">
    <path d="M256.707 25.0083C270.514 1.09371 301.094 -7.10004 325.008 6.70708L962.924 375.008C986.839 388.815 995.033 419.395 981.226 443.309L731.226 876.322C717.419 900.237 686.839 908.43 662.924 894.623L25.0084 526.322C1.09372 512.515 -7.10004 481.936 6.70708 458.021L256.707 25.0083Z" fill="#AFA1F9" fill-opacity="0.3"></path>
  </symbol>

   <symbol fill="none" xmlns="http://www.w3.org/2000/svg" viewBox="0 0 42 42" id="not-video">
    <g opacity="0.5">
      <circle cx="20.94" cy="21.125" r="20.325" fill="white"></circle>
      <path d="M30.4251 16.1329L26.4314 20.1266V16.6321C26.4314 16.083 25.9821 15.6337 25.433 15.6337H19.2627L30.4251 26.796V16.1329ZM12.7231 11.64L11.4551 12.908L14.1808 15.6337H13.4519C12.9028 15.6337 12.4535 16.083 12.4535 16.6321V26.6163C12.4535 27.1654 12.9028 27.6147 13.4519 27.6147H25.433C25.6426 27.6147 25.8224 27.5349 25.9721 27.435L29.1571 30.61L30.4251 29.342L12.7231 11.64Z" fill="#333333"></path>
    </g>
  </symbol>
  <symbol fill="none" xmlns="http://www.w3.org/2000/svg" viewBox="0 0 41 42" id="not-voise">
    <g opacity="0.5">
      <circle cx="20.3401" cy="21.125" r="20.325" fill="white"></circle>
      <path d="M27.7174 21.125H25.9258C25.9258 21.9049 25.7572 22.6321 25.4726 23.2855L26.7689 24.5818C27.3591 23.549 27.7174 22.3791 27.7174 21.125V21.125ZM23.4808 21.3042C23.4808 21.2409 23.5019 21.1882 23.5019 21.125V14.8017C23.5019 13.0522 22.0896 11.64 20.3402 11.64C18.5907 11.64 17.1785 13.0522 17.1785 14.8017V14.9914L23.4808 21.3042ZM12.1936 12.6939L10.8552 14.0323L17.1891 20.3662V21.125C17.1891 22.8745 18.5907 24.2867 20.3402 24.2867C20.572 24.2867 20.8039 24.2551 21.0252 24.2024L22.7747 25.9518C22.0264 26.2996 21.1938 26.4998 20.3402 26.4998C17.4315 26.4998 14.7546 24.2867 14.7546 21.125H12.963C12.963 24.7188 15.8295 27.6907 19.2863 28.2071V31.6639H21.3941V28.2071C22.3531 28.0701 23.2595 27.7329 24.071 27.2586L28.4868 31.6639L29.8252 30.3255L12.1936 12.6939Z" fill="black"></path>
    </g>
  </symbol>
  <symbol fill="none" xmlns="http://www.w3.org/2000/svg" viewBox="0 0 42 42" id="call-off">
    <circle cx="21.14" cy="21.125" r="20.325" fill="#FF4550"></circle>
    <path d="M21.1398 18.8667C19.6945 18.8667 18.2943 19.0925 16.9845 19.5171V22.3174C16.9845 22.6697 16.7767 22.9859 16.4786 23.1304C15.5933 23.573 14.7894 24.1421 14.0757 24.8016C13.9131 24.9642 13.6873 25.0545 13.4434 25.0545C13.1905 25.0545 12.9646 24.9551 12.802 24.7925L10.5618 22.5523C10.3992 22.3987 10.2998 22.1729 10.2998 21.9199C10.2998 21.667 10.3992 21.4412 10.5618 21.2786C13.3169 18.6679 17.0387 17.06 21.1398 17.06C25.2409 17.06 28.9627 18.6679 31.7178 21.2786C31.8804 21.4412 31.9798 21.667 31.9798 21.9199C31.9798 22.1729 31.8804 22.3987 31.7178 22.5613L29.4776 24.8016C29.315 24.9642 29.0891 25.0635 28.8362 25.0635C28.5923 25.0635 28.3665 24.9642 28.2039 24.8106C27.4902 24.1421 26.6772 23.5821 25.792 23.1394C25.4939 22.9949 25.2861 22.6878 25.2861 22.3264V19.5261C23.9853 19.0925 22.5851 18.8667 21.1398 18.8667Z" fill="white"></path>
  </symbol>

   <symbol  xmlns="http://www.w3.org/2000/svg" viewBox="0 0 86 102" id="points-seven">
    <circle cx="3" cy="35" r="3"></circle>
    <circle cx="3" cy="3" r="3"></circle>
    <circle cx="3" cy="51" r="3" ></circle>
    <circle cx="3" cy="19" r="3" ></circle>
    <circle cx="3" cy="67" r="3" ></circle>
    <circle cx="3" cy="83" r="3" ></circle>
    <circle cx="3" cy="99" r="3" ></circle>
    <circle cx="19" cy="35" r="3" ></circle>
    <circle cx="19" cy="3" r="3" ></circle>
    <circle cx="19" cy="51" r="3" ></circle>
    <circle cx="19" cy="19" r="3" ></circle>
    <circle cx="19" cy="67" r="3" ></circle>
    <circle cx="19" cy="83" r="3" ></circle>
    <circle cx="19" cy="99" r="3" ></circle>
    <circle cx="35" cy="35" r="3" ></circle>
    <circle cx="35" cy="3" r="3" ></circle>
    <circle cx="35" cy="51" r="3" ></circle>
    <circle cx="35" cy="19" r="3" ></circle>
    <circle cx="35" cy="67" r="3" ></circle>
    <circle cx="35" cy="83" r="3" ></circle>
    <circle cx="35" cy="99" r="3" ></circle>
    <circle cx="51" cy="83" r="3" ></circle>
    <circle cx="51" cy="99" r="3" ></circle>
    <circle cx="67" cy="83" r="3" ></circle>
    <circle cx="67" cy="99" r="3" ></circle>
    <circle cx="83" cy="83" r="3" ></circle>
    <circle cx="83" cy="99" r="3" ></circle>
  </symbol>
</svg>